<?xml version="1.0" encoding="UTF-8"?>
<!DOCTYPE svg PUBLIC "-//W3C//DTD SVG 1.1//EN" "http://www.w3.org/Graphics/SVG/1.1/DTD/svg11.dtd">
<svg xmlns="http://www.w3.org/2000/svg" version="1.1" width="40px" height="40px" style="shape-rendering:geometricPrecision; text-rendering:geometricPrecision; image-rendering:optimizeQuality; fill-rule:evenodd; clip-rule:evenodd" xmlns:xlink="http://www.w3.org/1999/xlink">
<g><path style="opacity:1" fill="#17e067" d="M 21.5,12.5 C 18.9799,13.1885 16.4799,14.1885 14,15.5C 13.0572,18.2507 12.2239,20.9174 11.5,23.5C 11.838,20.8431 11.1713,18.5098 9.5,16.5C 7.78256,17.6685 7.11589,19.3352 7.5,21.5C 6.79202,18.269 6.79202,15.1023 7.5,12C 10.4851,8.18658 14.1518,5.35324 18.5,3.5C 20.8312,2.81053 22.8312,3.64386 24.5,6C 22.9739,7.88707 20.9739,8.88707 18.5,9C 19.448,9.48278 20.448,9.64945 21.5,9.5C 21.5,10.5 21.5,11.5 21.5,12.5 Z"/></g>
<g><path style="opacity:1" fill="#22d95e" d="M 24.5,-0.5 C 25.5,-0.5 26.5,-0.5 27.5,-0.5C 29.1002,0.644443 30.7669,1.81111 32.5,3C 31.944,3.38258 31.6107,3.88258 31.5,4.5C 30.0695,4.57918 28.7362,4.24585 27.5,3.5C 24.2273,7.63851 24.894,8.97185 29.5,7.5C 29.5,8.83333 29.5,10.1667 29.5,11.5C 28.8485,10.9094 28.1818,10.2427 27.5,9.5C 25.7567,11.0383 23.7567,12.0383 21.5,12.5C 21.5,11.5 21.5,10.5 21.5,9.5C 20.448,9.64945 19.448,9.48278 18.5,9C 20.9739,8.88707 22.9739,7.88707 24.5,6C 22.8312,3.64386 20.8312,2.81053 18.5,3.5C 16.8333,2.16667 15.1667,2.16667 13.5,3.5C 12.5,3.5 11.5,3.5 10.5,3.5C 10.5,2.83333 10.1667,2.5 9.5,2.5C 10.505,0.257461 12.005,-0.0758726 14,1.5C 17.6542,0.937639 21.1542,0.270972 24.5,-0.5 Z"/></g>
<g><path style="opacity:1" fill="#16de61" d="M 18.5,3.5 C 14.1518,5.35324 10.4851,8.18658 7.5,12C 6.79202,15.1023 6.79202,18.269 7.5,21.5C 7.26057,23.4672 7.59391,25.3005 8.5,27C 6.14033,25.8265 4.807,26.6598 4.5,29.5C 3.83333,28.8333 3.16667,28.1667 2.5,27.5C 2.67158,26.5084 2.33825,25.8417 1.5,25.5C 1.5,23.5 1.5,21.5 1.5,19.5C 2.46906,21.663 3.30239,23.9963 4,26.5C 5.59561,23.7447 5.42894,20.9114 3.5,18C 4.71432,15.6494 5.54766,13.1494 6,10.5C 8.90163,8.489 11.4016,6.15566 13.5,3.5C 15.1667,2.16667 16.8333,2.16667 18.5,3.5 Z"/></g>
<g><path style="opacity:1" fill="#1ee25e" d="M 31.5,4.5 C 33.5,5.83333 35.1667,7.5 36.5,9.5C 35.5,9.5 34.5,9.5 33.5,9.5C 33.8333,11.5 34.1667,13.5 34.5,15.5C 33.8826,15.3893 33.3826,15.056 33,14.5C 31.9562,16.7148 31.2895,19.0481 31,21.5C 30.8171,18.6353 30.3171,15.9686 29.5,13.5C 29.5,12.8333 29.5,12.1667 29.5,11.5C 29.5,10.1667 29.5,8.83333 29.5,7.5C 24.894,8.97185 24.2273,7.63851 27.5,3.5C 28.7362,4.24585 30.0695,4.57918 31.5,4.5 Z"/></g>
<g><path style="opacity:1" fill="#04f940" d="M 39.5,10.5 C 39.5,11.1667 39.5,11.8333 39.5,12.5C 39.1667,12.5 38.8333,12.5 38.5,12.5C 38.3284,11.5084 38.6618,10.8417 39.5,10.5 Z"/></g>
<g><path style="opacity:1" fill="#12e364" d="M 36.5,9.5 C 36.9321,10.7095 37.5987,11.7095 38.5,12.5C 38.2322,14.099 38.5655,15.4324 39.5,16.5C 39.5,18.5 39.5,20.5 39.5,22.5C 38.2616,24.2143 37.595,26.2143 37.5,28.5C 37.1667,28.5 36.8333,28.5 36.5,28.5C 35.325,28.719 34.325,28.3857 33.5,27.5C 33.1678,23.9428 33.8344,20.4428 35.5,17C 34.944,16.6174 34.6107,16.1174 34.5,15.5C 34.1667,13.5 33.8333,11.5 33.5,9.5C 34.5,9.5 35.5,9.5 36.5,9.5 Z"/></g>
<g><path style="opacity:1" fill="#16e35f" d="M 9.5,2.5 C 10.1667,2.5 10.5,2.83333 10.5,3.5C 11.5,3.5 12.5,3.5 13.5,3.5C 11.4016,6.15566 8.90163,8.489 6,10.5C 5.54766,13.1494 4.71432,15.6494 3.5,18C 5.42894,20.9114 5.59561,23.7447 4,26.5C 3.30239,23.9963 2.46906,21.663 1.5,19.5C 1.42324,13.8187 3.42324,8.98533 7.5,5C 6.58807,3.37453 7.25474,2.5412 9.5,2.5 Z"/></g>
<g><path style="opacity:1" fill="#25f172" d="M -0.5,13.5 C 0.483418,17.2984 0.816751,21.2984 0.5,25.5C 0.166667,25.5 -0.166667,25.5 -0.5,25.5C -0.5,21.5 -0.5,17.5 -0.5,13.5 Z"/></g>
<g><path style="opacity:1" fill="#17201d" d="M 29.5,11.5 C 29.5,12.1667 29.5,12.8333 29.5,13.5C 30.6982,19.3979 29.0316,24.0646 24.5,27.5C 20.3355,29.3066 16.6689,28.6399 13.5,25.5C 12.2011,26.09 11.3678,27.09 11,28.5C 10.5357,27.9056 10.369,27.2389 10.5,26.5C 10.5569,25.391 10.8902,24.391 11.5,23.5C 12.2239,20.9174 13.0572,18.2507 14,15.5C 16.4799,14.1885 18.9799,13.1885 21.5,12.5C 23.7567,12.0383 25.7567,11.0383 27.5,9.5C 28.1818,10.2427 28.8485,10.9094 29.5,11.5 Z"/></g>
<g><path style="opacity:1" fill="#0add53" d="M 24.5,12.5 C 25.8221,12.33 26.9887,12.6634 28,13.5C 29.3254,22.5058 25.492,26.6725 16.5,26C 16.0426,25.586 15.7093,25.086 15.5,24.5C 17.678,23.3434 19.678,22.0101 21.5,20.5C 21.1667,20.1667 20.8333,19.8333 20.5,19.5C 18.5,20.5 16.5,21.5 14.5,22.5C 13.3861,21.277 13.2195,19.9437 14,18.5C 17.2051,15.7317 20.7051,13.7317 24.5,12.5 Z"/></g>
<g><path style="opacity:1" fill="#15e066" d="M 29.5,13.5 C 30.3171,15.9686 30.8171,18.6353 31,21.5C 31.2895,19.0481 31.9562,16.7148 33,14.5C 33.3826,15.056 33.8826,15.3893 34.5,15.5C 34.6107,16.1174 34.944,16.6174 35.5,17C 33.8344,20.4428 33.1678,23.9428 33.5,27.5C 34.325,28.3857 35.325,28.719 36.5,28.5C 36.5,29.1667 36.8333,29.5 37.5,29.5C 37.573,31.0269 36.9063,32.0269 35.5,32.5C 35.1667,31.1667 34.8333,31.1667 34.5,32.5C 34.1667,32.5 33.8333,32.5 33.5,32.5C 32.8333,31.1667 32.1667,31.1667 31.5,32.5C 30.1667,32.5 28.8333,32.5 27.5,32.5C 30.183,29.5752 29.5163,28.9085 25.5,30.5C 24.6143,29.675 24.281,28.675 24.5,27.5C 29.0316,24.0646 30.6982,19.3979 29.5,13.5 Z"/></g>
<g><path style="opacity:1" fill="#21a473" d="M 0.5,25.5 C 0.833333,25.5 1.16667,25.5 1.5,25.5C 1.5,26.1667 1.5,26.8333 1.5,27.5C 0.661754,27.1583 0.32842,26.4916 0.5,25.5 Z"/></g>
<g><path style="opacity:1" fill="#0fea66" d="M 11.5,23.5 C 10.8902,24.391 10.5569,25.391 10.5,26.5C 9.40168,27.6009 9.23502,28.9343 10,30.5C 12.4281,31.63 14.5947,33.13 16.5,35C 18.8333,35.6667 21.1667,35.6667 23.5,35C 24.4709,33.5187 25.8042,32.6854 27.5,32.5C 28.8333,32.5 30.1667,32.5 31.5,32.5C 31.5,33.1667 31.5,33.8333 31.5,34.5C 30.8333,34.5 30.5,34.8333 30.5,35.5C 30.1667,35.5 29.8333,35.5 29.5,35.5C 23.4499,36.9956 17.4499,36.8289 11.5,35C 10.0422,32.54 8.20887,30.3734 6,28.5C 5.53566,29.0944 5.36899,29.7611 5.5,30.5C 5.16667,30.5 4.83333,30.5 4.5,30.5C 4.5,30.1667 4.5,29.8333 4.5,29.5C 4.807,26.6598 6.14033,25.8265 8.5,27C 7.59391,25.3005 7.26057,23.4672 7.5,21.5C 7.11589,19.3352 7.78256,17.6685 9.5,16.5C 11.1713,18.5098 11.838,20.8431 11.5,23.5 Z"/></g>
<g><path style="opacity:1" fill="#1d4d20" d="M 39.5,26.5 C 39.5,27.1667 39.5,27.8333 39.5,28.5C 39.1667,28.5 38.8333,28.5 38.5,28.5C 38.3284,27.5084 38.6618,26.8417 39.5,26.5 Z"/></g>
<g><path style="opacity:1" fill="#04f92b" d="M 1.5,27.5 C 1.83333,27.5 2.16667,27.5 2.5,27.5C 2.16667,30.1667 1.83333,30.1667 1.5,27.5 Z"/></g>
<g><path style="opacity:1" fill="#00fa7c" d="M 37.5,28.5 C 37.8333,28.5 38.1667,28.5 38.5,28.5C 38.3147,29.1701 37.9813,29.1701 37.5,28.5 Z"/></g>
<g><path style="opacity:1" fill="#12e066" d="M 24.5,27.5 C 24.281,28.675 24.6143,29.675 25.5,30.5C 29.5163,28.9085 30.183,29.5752 27.5,32.5C 25.8042,32.6854 24.4709,33.5187 23.5,35C 21.1667,35.6667 18.8333,35.6667 16.5,35C 14.5947,33.13 12.4281,31.63 10,30.5C 9.23502,28.9343 9.40168,27.6009 10.5,26.5C 10.369,27.2389 10.5357,27.9056 11,28.5C 11.3678,27.09 12.2011,26.09 13.5,25.5C 16.6689,28.6399 20.3355,29.3066 24.5,27.5 Z"/></g>
<g><path style="opacity:1" fill="#1ccc56" d="M 29.5,35.5 C 29.8333,36.8333 30.1667,36.8333 30.5,35.5C 31.1667,35.5 31.5,35.1667 31.5,34.5C 31.5,33.8333 31.5,33.1667 31.5,32.5C 32.1667,31.1667 32.8333,31.1667 33.5,32.5C 33.5,32.8333 33.5,33.1667 33.5,33.5C 32.1667,33.8333 32.1667,34.1667 33.5,34.5C 32.1979,36.8218 30.1979,38.1551 27.5,38.5C 26.5,37.1667 25.5,37.1667 24.5,38.5C 21.8333,38.5 19.1667,38.5 16.5,38.5C 13.6961,36.9115 10.6961,36.0782 7.5,36C 7.41267,34.25 6.746,32.4167 5.5,30.5C 5.36899,29.7611 5.53566,29.0944 6,28.5C 8.20887,30.3734 10.0422,32.54 11.5,35C 17.4499,36.8289 23.4499,36.9956 29.5,35.5 Z"/></g>
<g><path style="opacity:1" fill="#11f941" d="M 4.5,30.5 C 4.63101,31.2389 4.46434,31.9056 4,32.5C 3.30831,31.5632 3.47498,30.8966 4.5,30.5 Z"/></g>
<g><path style="opacity:1" fill="#00fa7c" d="M 34.5,32.5 C 34.8333,32.5 35.1667,32.5 35.5,32.5C 35.3147,33.1701 34.9813,33.1701 34.5,32.5 Z"/></g>
<g><path style="opacity:1" fill="#007d7c" d="M 33.5,33.5 C 33.8333,33.5 34.1667,33.5 34.5,33.5C 34.3147,34.1701 33.9813,34.1701 33.5,33.5 Z"/></g>
<g><path style="opacity:1" fill="#33f976" d="M 13.5,39.5 C 14.209,38.596 15.209,38.2627 16.5,38.5C 16.5,38.8333 16.5,39.1667 16.5,39.5C 15.5,39.5 14.5,39.5 13.5,39.5 Z"/></g>
<g><path style="opacity:1" fill="#28d074" d="M 24.5,39.5 C 24.5,39.1667 24.5,38.8333 24.5,38.5C 25.5,38.5 26.5,38.5 27.5,38.5C 27.5,38.8333 27.5,39.1667 27.5,39.5C 26.5,39.5 25.5,39.5 24.5,39.5 Z"/></g>
</svg>
